PathFileType	4	(X/Y/Z)	Patient4_TMGait_0pt4_03_right_36.trc.trc
DataRate	CameraRate	NumFrames	NumMarkers	Units	OrigDataRate	OrigDataStartFrame	OrigNumFrames
72.916666666667	72.916666666667	6	33	mm	72.916666666667	106	       141
Frame#	Time	Sacral			L.Shoulder			Chest			R.Shoulder			Neck			R.ASIS			L.ASIS			R.Thigh.Superior			R.Thigh.Lateral			R.Thigh.Inferior			R.Patella			L.Thigh.Superior			L.Thigh.Lateral			L.Thigh.Inferior			L.Patella			L.Shank.Superior			L.Shank.Lateral			L.Shank.Inferior			R.Shank.Superior			R.Shank.Lateral			R.Shank.Inferior			R.Heel			R.Midfoot.Superior			R.Midfoot.Lateral			R.Toe			L.Heel			L.Midfoot.Lateral			L.Midfoot.Superior			L.Toe			L.Elbow			L.Wrist			R.Elbow			R.Wrist			
		X1	Y1	Z1	X2	Y2	Z2	X3	Y3	Z3	X4	Y4	Z4	X5	Y5	Z5	X6	Y6	Z6	X7	Y7	Z7	X8	Y8	Z8	X9	Y9	Z9	X10	Y10	Z10	X11	Y11	Z11	X12	Y12	Z12	X13	Y13	Z13	X14	Y14	Z14	X15	Y15	Z15	X16	Y16	Z16	X17	Y17	Z17	X18	Y18	Z18	X19	Y19	Z19	X20	Y20	Z20	X21	Y21	Z21	X22	Y22	Z22	X23	Y23	Z23	X24	Y24	Z24	X25	Y25	Z25	X26	Y26	Z26	X27	Y27	Z27	X28	Y28	Z28	X29	Y29	Z29	X30	Y30	Z30	X31	Y31	Z31	X32	Y32	Z32	X33	Y33	Z33	

106	48.430000000000	852.200942543033	1008.893358291377	421.734617189733	1037.117582741523	1435.273690097752	229.150794766846	1136.174741794146	1371.942168806316	394.762962427047	1046.054502235891	1448.255376169716	564.953761459546	1014.558569753041	1500.233783961656	384.904536634588	1081.093881858773	952.156901561644	542.255348923668	1070.169051351108	965.418875008151	268.645857340847	1166.477768210947	782.458714062190	517.686436139351	1127.085654468932	663.374525934863	598.053896156706	1217.868481977971	623.450333149879	522.162282074059	1240.671694928876	517.825463682611	549.442619459013	1113.634670752189	749.071840309785	298.599525898848	1020.145213118631	635.228751711549	239.923426673264	1101.296147297427	555.676485483492	303.120717639428	1098.666105735863	486.961331663244	314.269177960216	1070.069872442329	415.453805148785	307.177010818395	977.704511086789	303.303478507956	257.636045012580	1022.382004558353	191.338446219990	330.747730673607	1177.384928076804	435.081993861498	559.986099203001	1066.539051863999	376.872838699331	624.327415954314	1071.861381239145	264.924521680218	579.806726771419	886.437379480970	168.963867156376	561.114263027653	1061.862315424636	136.243798980411	591.995321690583	956.549470399980	117.985382765248	631.013048576549	1145.475798907897	36.758401500390	614.241603436718	891.293251710410	38.943459496639	376.601224554350	962.700146030118	35.187676195721	293.539218926988	1047.091134645164	95.892904256149	319.180445663060	1175.042703370018	42.094781200302	286.040275576474	1009.802115056801	1091.808135510655	93.456247450207	1180.855821255086	891.590927228982	82.967606657943	993.967149661182	1113.751565665109	707.097378275227	1062.365938468324	861.731549209447	730.899628718492	
107	48.443714285714	850.677780510413	1009.791245707666	420.263374999536	1039.229827884926	1435.626771513610	229.074475445302	1136.305609356281	1371.826512981144	395.616075706969	1044.794014572910	1448.489956249375	564.871894520790	1015.133016803170	1500.590076160511	384.760076104226	1078.561372941969	953.008580613358	542.884080584663	1069.722661910151	965.342296278543	269.126141791618	1164.025987656539	783.532816486155	518.676370748236	1124.484033246233	664.541974627772	599.192971276654	1214.778136124568	624.367165287480	523.145593281416	1238.849722094120	520.903317011017	550.395711440082	1110.922137862873	748.362070119891	299.710004561007	1016.761749710367	635.354412319012	240.000445735515	1096.673682541187	555.140511638881	303.726420490906	1093.285852138022	486.581857532212	314.764267849260	1064.794980476667	415.336958706253	307.387830311424	972.411444413909	303.270925971089	257.735955969459	1016.960350339720	191.302072971277	330.922238949543	1179.963754935980	436.580301142277	561.766369706815	1073.945399018038	372.195375244277	627.512160239783	1085.597796214172	260.653480147422	583.041610811160	906.648171573102	153.113702511514	566.051030278314	1083.570700889379	131.990688645888	595.957368549916	980.172025407956	107.685247732148	636.113687761504	1173.462241934595	38.655145859834	618.925930129005	885.744467425122	38.885909844077	376.609014526545	957.161312378904	35.173503935323	293.526897772121	1041.553654845892	95.877786396771	319.214436127746	1169.506772764600	42.117062075218	286.035191170554	1012.539163831565	1092.635061611569	92.386725333346	1183.925184315355	892.635715986988	83.543712604651	990.404420607946	1114.931375903996	708.076350560089	1056.725369171176	862.551810427232	733.268647384450	
108	48.457428571429	849.217285334388	1010.617754042038	418.976329762223	1041.344186829781	1435.861069541673	229.196071635573	1136.502719259620	1371.588109735723	396.607120718674	1043.709155863468	1448.604675293602	564.965843833757	1015.792185806862	1500.849131168626	384.801473874003	1076.089364626497	953.674940481180	543.634236591680	1069.277967634149	965.200545512419	269.720297765422	1161.109513284069	783.884200080726	519.889678983484	1120.939322325120	665.182247853141	600.512603662846	1210.558116785098	624.426018259247	524.259568198856	1235.757566164295	523.426928531472	551.285249271079	1108.170894912226	747.619780874903	300.911035331210	1013.382514723674	635.456769497122	240.150619929087	1092.017291089996	554.587636816689	304.417460652052	1087.873269024244	486.206524996755	315.330669667266	1059.508824021667	415.207889143574	307.657665993183	967.119123803745	303.225726203503	257.873254453373	1011.542831084239	191.259432461210	331.136962644233	1181.706705467092	437.827794827002	563.575565517710	1081.424100329832	367.167134871764	631.043379578432	1099.688214918737	256.527314811241	586.403899420643	928.447880615430	137.189045578951	571.404791961838	1106.262591923578	128.365047464751	600.089524671856	1005.285296094540	97.753428709014	641.454185436064	1202.342711601256	41.734960463519	623.516935506678	880.203114813033	38.819868075261	376.621222238152	951.619436577440	35.154503292730	293.522512755403	1036.008937620493	95.862723954788	319.267517282201	1163.965623301733	42.154836179923	286.040370639932	1015.090882703116	1093.304071705362	91.617884956120	1186.595226484138	893.354058120988	84.418557584849	987.199147012689	1115.867121187382	709.040070874413	1051.922066139562	863.249915092139	735.405797095571	
109	48.471142857143	847.855132931082	1011.363776530127	417.889071660501	1043.426382121158	1435.980602424687	229.521637267325	1136.761007968576	1371.236964894686	397.732413956410	1042.809511509959	1448.603757320880	565.247608643104	1016.522278301200	1501.013335200483	385.037688429739	1073.708280086056	954.141616500789	544.496859302218	1068.849836254394	964.998830623989	270.422812746523	1157.720549395196	783.487053835004	521.320019417988	1116.478136120509	665.309489077397	602.033081385723	1205.274429154319	623.662356378447	525.529021108355	1231.466286414535	525.390028898299	552.139990065859	1105.411110589127	746.849465737733	302.190344715408	1010.027291935696	635.536647906646	240.372770054252	1087.348340083317	554.016394628458	305.183600832905	1082.455884055647	485.836327288971	315.957232368269	1054.229360973404	415.065841655783	307.982804236051	961.839517572694	303.173508036682	258.039788205658	1006.131980608014	191.209239939762	331.381215258667	1182.599575534812	438.892408101142	565.403875481583	1088.847536899805	362.024300006850	634.796073667656	1113.892778459717	252.821004154269	589.763344100920	951.535233041531	121.761674179003	576.871482016339	1129.559426445046	125.662798857768	604.218819733715	1031.464251179861	88.596956313841	646.739355512329	1231.552852594489	46.146343899343	627.787523225350	874.668416926044	38.750583344359	376.633621738401	946.074562386367	35.130924402559	293.524932387138	1030.457750521166	95.846493063230	319.335127482084	1158.419437953330	42.203640928056	286.054655958287	1017.458028519680	1093.805943157945	91.168769348173	1188.872721916203	893.743759346237	85.587602666431	984.363960969988	1116.550942086844	709.983074971309	1047.940518199336	863.795309509656	737.347510132540	
110	48.484857142857	846.625936375330	1012.022826828908	417.016394247377	1045.442121695892	1435.995163248889	230.055181456731	1137.072823984132	1370.788725154250	398.987920628940	1042.096365475142	1448.496913636607	565.726541140961	1017.304206006119	1501.088920091437	385.475493513960	1071.450681516689	954.404828352473	545.467053565947	1068.457929383153	964.744544853122	271.232744312370	1153.879907558295	782.356904740016	522.964555516723	1111.185888375157	664.960356755585	603.770315068982	1199.065984307548	622.160002822363	526.977916456559	1226.112651927073	526.814545900043	553.008589338315	1102.677000419668	746.056415315148	303.544125052854	1006.715563560436	635.597345933751	240.667416510455	1082.686869606383	553.427020988622	306.016641415744	1077.057617936196	485.472399400095	316.633424772315	1048.970157910142	414.912458613515	308.359639647852	956.580792751554	303.121879713123	258.228788543611	1000.728000096222	191.151532432220	331.643661777049	1182.661234704247	439.836382176466	567.250204290091	1096.033573585029	356.985270282661	638.611500348572	1127.913230258055	249.751382891111	592.987330076056	975.444286602287	107.355080123226	582.104762976105	1152.980441575488	124.066368102350	608.164286490485	1058.132557158299	80.524802903934	651.652924870730	1260.443926679762	51.874467720781	631.532930478445	869.138644251988	38.683632225336	376.643205792559	940.526980525656	35.103683890931	293.532814235524	1024.902234396859	95.828300295956	319.411807383536	1152.868914921556	42.258389671485	286.076614463182	1019.638356135600	1094.138009969191	91.059669530327	1190.761904598544	893.808506453571	87.048521821647	981.916455784421	1116.985787134400	710.909659008869	1044.771776174729	864.171910496225	739.115586995928	
111	48.498571428571	845.560489945798	1012.588277913287	416.373560794737	1047.356685473833	1435.918005961661	230.798645720549	1137.426727924684	1370.263097736377	400.369810810402	1041.561391591361	1448.297104360607	566.409246876779	1018.113098484536	1501.083837681914	386.119662578115	1069.351139567393	954.470081197821	546.544604310340	1068.125571655348	964.445722301148	272.153981403873	1149.647814628843	780.556586272006	524.821385446195	1105.212773120440	664.188590260670	605.725163661297	1192.147318356193	620.046647333465	528.620799487729	1219.900250246914	527.746551344974	553.948419790613	1100.004681793991	745.244684262835	304.974479853138	1003.466603856792	635.643315636154	241.036885898202	1078.053077085937	552.820932896302	306.910000573392	1071.700364044148	485.115092531303	317.349473856658	1043.742253402226	414.751010201627	308.784436057513	951.348189751806	303.079838176637	258.435378899113	995.329732750625	191.087439560761	331.913241762895	1181.944760822961	440.701585201620	569.113670594055	1102.751981650032	352.228615325220	642.304192545534	1141.397610101658	247.449044571057	595.949660792624	999.541918397260	94.406028346635	586.749203473965	1175.944598233732	123.614875821144	611.751443737981	1084.567527657812	73.721027136768	655.889501607573	1288.292441674089	58.714691962879	634.593610765856	863.611842233087	38.624475874684	376.648469114806	934.977285971341	35.074400499264	293.544554007371	1019.345762884943	95.808099719589	319.491443268016	1147.315173214431	42.313955717933	286.104514088028	1021.627107175182	1094.302802734300	91.309179739679	1192.265193533166	893.556601942560	88.801355112032	979.875392027186	1117.182254997666	711.832177017893	1042.413079257414	864.375511044651	740.719349240778	
